<?xml version="1.0" standalone="no"?><!DOCTYPE svg PUBLIC "-//W3C//DTD SVG 1.1//EN" "http://www.w3.org/Graphics/SVG/1.1/DTD/svg11.dtd"><svg t="1720802506029" class="icon" viewBox="0 0 1024 1024" version="1.1" xmlns="http://www.w3.org/2000/svg" p-id="2785" xmlns:xlink="http://www.w3.org/1999/xlink" width="200" height="200"><path d="M195.727 317.686c0 25.6 13.169 49.275 34.55 62.075a66.929 66.929 0 0 0 69.1 0c21.36-12.8 34.529-36.455 34.529-62.055 0-39.608-30.925-71.68-69.08-71.68-38.153 0-69.099 32.072-69.099 71.68z" fill="#2386EE" p-id="2786"></path><path d="M61.44 480.748c0 27.381 21.402 49.582 47.8 49.582 26.42 0 47.8-22.2 47.8-49.582s-21.401-49.583-47.8-49.583c-26.398 0-47.8 22.2-47.8 49.562z" fill="#00CCFE" p-id="2787"></path><path d="M206.356 608.01c0 21.668 11.142 41.698 29.246 52.531 18.084 10.855 40.366 10.855 58.45 0 18.104-10.833 29.245-30.863 29.245-52.53s-11.14-41.698-29.245-52.532a56.648 56.648 0 0 0-58.45 0c-18.104 10.854-29.246 30.863-29.246 52.531z" fill="#05C8C8" p-id="2788"></path><path d="M368.23 731.443c0 21.3 16.671 38.585 37.213 38.585 20.541 0 37.191-17.265 37.191-38.585 0-21.299-16.65-38.584-37.191-38.584-20.542 0-37.192 17.285-37.192 38.584z" fill="#A06EFF" p-id="2789"></path><path d="M436.982 418.939c0 1.126-0.41 2.335-1.209 3.584-0.819 1.25-2.109 2.867-3.89 4.895l-42.6 45.629 25.294 54.313c0.491 1.25 0.86 2.335 1.126 3.236a9.585 9.585 0 0 1 0.369 2.498c0 0.881-0.205 1.618-0.615 2.212a4.26 4.26 0 0 1-2.089 1.434 16.835 16.835 0 0 1-4.055 0.86 61.645 61.645 0 0 1-6.45 0.287c-2.622 0-4.711-0.082-6.33-0.246a18.289 18.289 0 0 1-3.809-0.696 4.178 4.178 0 0 1-2.048-1.332 6.574 6.574 0 0 1-1.024-1.966l-25.456-57.692-11.264 57.959a3.072 3.072 0 0 1-0.922 1.76 6.205 6.205 0 0 1-2.273 1.23 18.186 18.186 0 0 1-3.891 0.737 60.908 60.908 0 0 1-5.94 0.246c-2.396 0-4.362-0.082-5.877-0.246a13.64 13.64 0 0 1-3.584-0.758 3.686 3.686 0 0 1-1.782-1.229c-0.307-0.47-0.369-1.024-0.184-1.72l22.692-115.098a2.683 2.683 0 0 1 0.819-1.74 5.837 5.837 0 0 1 2.294-1.188 20.398 20.398 0 0 1 3.89-0.696c1.598-0.164 3.585-0.246 6.001-0.246 2.356 0 4.301 0.082 5.817 0.246 1.515 0.143 2.703 0.389 3.584 0.696 0.86 0.307 1.433 0.696 1.761 1.188 0.307 0.45 0.41 1.024 0.287 1.74l-10.24 52.02 44.626-51.65a13.25 13.25 0 0 1 1.986-1.987 7.823 7.823 0 0 1 2.765-1.311c1.106-0.307 2.458-0.553 4.096-0.696 1.597-0.164 3.604-0.246 6.042-0.246 2.457 0 4.505 0.082 6.082 0.246 1.577 0.143 2.806 0.41 3.666 0.757a4.014 4.014 0 0 1 1.823 1.23 2.888 2.888 0 0 1 0.512 1.74z m17.47 115.18a3.215 3.215 0 0 1-0.881 1.638 5.284 5.284 0 0 1-2.13 1.188 18.37 18.37 0 0 1-3.769 0.716 57.037 57.037 0 0 1-5.673 0.226c-2.293 0-4.157-0.082-5.611-0.226a14.95 14.95 0 0 1-3.44-0.716c-0.84-0.308-1.393-0.697-1.64-1.168a2.458 2.458 0 0 1-0.184-1.638l16.466-83.763a3.215 3.215 0 0 1 0.881-1.639 5.734 5.734 0 0 1 2.13-1.229 17.551 17.551 0 0 1 3.727-0.819c1.516-0.184 3.42-0.266 5.735-0.266 2.253 0 4.157 0.082 5.611 0.266 1.434 0.205 2.601 0.471 3.44 0.82 0.82 0.327 1.373 0.757 1.64 1.228a2.458 2.458 0 0 1 0.163 1.639l-16.466 83.763z m23.981-112.17c-0.41 2.335-1.024 4.301-1.761 5.878a10.22 10.22 0 0 1-7.537 5.94c-1.802 0.409-4.034 0.614-6.697 0.614-2.6 0-4.71-0.205-6.369-0.615a6.984 6.984 0 0 1-3.727-2.089 6.513 6.513 0 0 1-1.434-3.85 21.197 21.197 0 0 1 0.553-5.878c0.41-2.252 1.024-4.157 1.761-5.734a10.793 10.793 0 0 1 7.537-6.021c1.802-0.43 4.035-0.655 6.697-0.655 2.601 0 4.71 0.204 6.37 0.655 1.638 0.45 2.866 1.167 3.727 2.17 0.819 1.004 1.29 2.295 1.392 3.851 0.103 1.577-0.061 3.482-0.512 5.734z m88.597 46.961c0 2.191-0.144 4.383-0.41 6.595a153.342 153.342 0 0 1-1.085 6.758l-10.302 51.855a3.215 3.215 0 0 1-0.88 1.639 5.284 5.284 0 0 1-2.15 1.188 18.227 18.227 0 0 1-3.728 0.716 56.832 56.832 0 0 1-5.714 0.226c-2.294 0-4.157-0.082-5.612-0.226a14.193 14.193 0 0 1-3.4-0.716c-0.818-0.308-1.35-0.697-1.638-1.168a2.212 2.212 0 0 1-0.204-1.638l10.035-50.36a43.745 43.745 0 0 0 0.9-8.745 12.575 12.575 0 0 0-1.76-6.964c-1.168-1.843-3.154-2.723-5.94-2.723a15.647 15.647 0 0 0-7.946 2.437c-2.765 1.638-5.366 3.85-7.803 6.635-2.457 2.785-4.649 6.062-6.553 9.79-1.925 3.727-3.277 7.7-4.096 11.899l-7.537 38.01a3.215 3.215 0 0 1-0.88 1.639 5.284 5.284 0 0 1-2.151 1.188 18.37 18.37 0 0 1-3.768 0.716 57.037 57.037 0 0 1-5.653 0.226c-2.294 0-4.178-0.082-5.632-0.226a14.95 14.95 0 0 1-3.44-0.716c-0.82-0.308-1.373-0.697-1.639-1.168a2.458 2.458 0 0 1-0.164-1.638l16.63-84.05a3.502 3.502 0 0 1 0.799-1.638 4.157 4.157 0 0 1 1.843-1.127 16.548 16.548 0 0 1 3.277-0.676c1.31-0.143 2.928-0.225 4.772-0.225 1.925 0 3.481 0.082 4.71 0.225a11.633 11.633 0 0 1 2.826 0.676c0.676 0.266 1.127 0.656 1.331 1.127 0.226 0.45 0.267 1.024 0.144 1.638l-2.683 13.824a40.223 40.223 0 0 1 12.698-12.902c2.805-1.803 5.877-3.277 9.195-4.445a31.13 31.13 0 0 1 10.363-1.74c4.342 0 7.987 0.614 10.916 1.925a18.964 18.964 0 0 1 11.12 12.902c0.82 2.908 1.209 6 1.209 9.257z m87.45 68.608a50.38 50.38 0 0 1-5.182 14.91c-2.376 4.239-5.468 7.782-9.298 10.65-3.85 2.825-8.52 4.996-13.988 6.43-5.488 1.433-11.878 2.17-19.21 2.17-5.263 0-9.994-0.409-14.172-1.269a45.978 45.978 0 0 1-10.445-3.256 4.71 4.71 0 0 1-2.048-1.68 5.222 5.222 0 0 1-0.553-2.642 31.805 31.805 0 0 1 0.512-4.792c0.225-1.065 0.492-2.191 0.799-3.338a15.442 15.442 0 0 1 1.167-3.113 10.138 10.138 0 0 1 1.536-2.253 2.58 2.58 0 0 1 1.946-0.901c0.737 0 1.638 0.266 2.744 0.799 1.085 0.532 2.519 1.106 4.3 1.74a50.995 50.995 0 0 0 16.549 2.54c3.174 0 6.02-0.246 8.54-0.758a20.275 20.275 0 0 0 6.553-2.457 13.865 13.865 0 0 0 4.506-4.301 18.227 18.227 0 0 0 2.458-6.513c0.819-4.075 1.618-7.496 2.416-10.24 0.82-2.785 1.557-5.038 2.253-6.8a26.112 26.112 0 0 1-4.792 6.165 39.71 39.71 0 0 1-15.708 9.421c-3.072 0.963-6.144 1.454-9.257 1.454-4.772 0-8.786-0.819-12.043-2.457a21.156 21.156 0 0 1-7.946-6.759c-2.048-2.888-3.522-6.287-4.403-10.158a56.033 56.033 0 0 1-1.352-12.616 84.992 84.992 0 0 1 4.608-27.197 78.183 78.183 0 0 1 5.98-13.373 51.224 51.224 0 0 1 8.704-11.346 39.899 39.899 0 0 1 11.613-7.844 35.84 35.84 0 0 1 14.745-2.908c5.12 0 9.687 1.065 13.64 3.235 3.973 2.171 7.455 5.325 10.424 9.462l1.475-7.434c0.245-1.331 1.229-2.253 2.928-2.826 1.72-0.574 4.445-0.84 8.233-0.84 1.844 0 3.42 0.082 4.65 0.225 1.228 0.164 2.211 0.39 2.928 0.676 0.717 0.266 1.208 0.656 1.434 1.127a2.458 2.458 0 0 1 0.204 1.638l-17.428 87.43z m-10.753-62.3a24.842 24.842 0 0 0-7.209-7.762 16.323 16.323 0 0 0-9.154-2.58 13.742 13.742 0 0 0-7.107 1.884 21.381 21.381 0 0 0-5.775 5.038 33.976 33.976 0 0 0-4.465 7.29 57.958 57.958 0 0 0-3.154 8.664 65.638 65.638 0 0 0-2.457 17.592c0 2.13 0.184 4.096 0.553 5.837a13.476 13.476 0 0 0 1.72 4.464 7.851 7.851 0 0 0 2.97 2.827 9.114 9.114 0 0 0 4.423 0.983c2.724 0 5.51-0.82 8.356-2.478 2.867-1.68 5.53-3.933 7.987-6.78a49.5 49.5 0 0 0 10.69-22.261l2.622-12.698z m112.087 59.003c-0.245 1.331-1.228 2.253-2.928 2.826a28.692 28.692 0 0 1-8.213 0.84c-1.925 0-3.481-0.062-4.71-0.185a11.53 11.53 0 0 1-2.929-0.614c-0.737-0.287-1.229-0.655-1.433-1.126a2.867 2.867 0 0 1-0.144-1.741l2.52-13.456a25.723 25.723 0 0 1-4.465 6.35 40.489 40.489 0 0 1-16.507 10.649 31.949 31.949 0 0 1-10.445 1.74c-3.543 0-6.636-0.47-9.257-1.372a20.46 20.46 0 0 1-11.469-9.256 32.584 32.584 0 0 1-2.99-6.78 42.844 42.844 0 0 1-1.577-7.372 62.177 62.177 0 0 1-0.47-7.496c0-4.096 0.368-8.458 1.126-13.128a83.46 83.46 0 0 1 3.481-13.926 76.974 76.974 0 0 1 6-13.312c2.417-4.28 5.326-8.049 8.684-11.305 3.38-3.277 7.25-5.857 11.612-7.803a35.84 35.84 0 0 1 21.668-2.13c2.192 0.553 4.22 1.27 6.042 2.171a24.453 24.453 0 0 1 8.786 7.21l8.827-44.34a3.707 3.707 0 0 1 0.84-1.7 4.854 4.854 0 0 1 2.088-1.25 17.572 17.572 0 0 1 3.728-0.818c1.515-0.185 3.42-0.267 5.714-0.267 2.293 0 4.178 0.082 5.632 0.267a13.312 13.312 0 0 1 3.379 0.819c0.819 0.328 1.331 0.758 1.597 1.25a2.621 2.621 0 0 1 0.185 1.699l-24.372 123.556z m-11.612-58.819a25.477 25.477 0 0 0-7.209-7.803 16.077 16.077 0 0 0-16.179-0.819c-2.13 1.229-4.055 2.867-5.755 4.915-1.7 2.048-3.195 4.404-4.464 7.148a55.706 55.706 0 0 0-3.154 8.601c-0.82 3.011-1.475 6.022-1.905 9.053a60.58 60.58 0 0 0-0.655 8.56c0 4.772 0.778 8.356 2.314 10.773 1.556 2.416 3.993 3.625 7.352 3.625 2.724 0 5.53-0.82 8.356-2.499 2.867-1.659 5.53-3.891 7.987-6.676a48.681 48.681 0 0 0 10.69-22.078l2.622-12.8z m121.406-6.758c0 4.505-1.024 8.56-3.01 12.165a25.948 25.948 0 0 1-9.401 9.318c-4.24 2.622-9.626 4.608-16.18 5.98-6.533 1.393-14.335 2.069-23.367 2.069h-8.56a52.429 52.429 0 0 0-0.738 8.192c0 5.079 1.31 8.909 3.891 11.469 2.622 2.58 6.8 3.891 12.575 3.891 4.096 0 7.762-0.307 11.018-0.922a84.603 84.603 0 0 0 14.643-3.952 11.674 11.674 0 0 1 3.523-0.901c0.737 0 1.27 0.204 1.577 0.655a3.645 3.645 0 0 1 0.47 2.068 35.738 35.738 0 0 1-1.064 7.762 23.941 23.941 0 0 1-1.31 3.81 8.13 8.13 0 0 1-1.823 2.744 11.878 11.878 0 0 1-4.096 2.253c-1.967 0.758-4.342 1.433-7.148 2.068a92.058 92.058 0 0 1-19.988 2.171c-5.94 0-11.121-0.614-15.565-1.884a28.672 28.672 0 0 1-11.1-5.734 23.695 23.695 0 0 1-6.697-9.83 40.448 40.448 0 0 1-2.233-14.173c0-4.198 0.39-8.704 1.168-13.517a74.904 74.904 0 0 1 3.768-14.192 68.956 68.956 0 0 1 6.697-13.415 47.043 47.043 0 0 1 23.347-19.005c5.059-1.946 10.855-2.908 17.347-2.908 5.652 0 10.506 0.675 14.54 2.007 4.076 1.351 7.414 3.154 10.015 5.365a21.463 21.463 0 0 1 7.7 16.425z m-22.958 1.761a7.885 7.885 0 0 0-2.929-6.246c-1.966-1.66-4.792-2.499-8.52-2.499a19.66 19.66 0 0 0-14.766 6.267 27.708 27.708 0 0 0-4.792 6.758 43.821 43.821 0 0 0-3.215 8.336h7.823c4.936 0 9.093-0.328 12.452-0.983 3.338-0.656 6.041-1.557 8.069-2.663 2.048-1.147 3.543-2.478 4.464-4.014a9.236 9.236 0 0 0 1.414-4.956z m116.47-1.782c0 4.506-1.025 8.602-3.011 12.186a25.948 25.948 0 0 1-9.4 9.318c-4.24 2.622-9.626 4.608-16.18 5.98-6.533 1.393-14.336 2.069-23.367 2.069H898.6a52.429 52.429 0 0 0-0.737 8.192c0 5.079 1.31 8.909 3.89 11.469 2.622 2.58 6.8 3.891 12.555 3.891 4.096 0 7.783-0.307 11.018-0.922a84.603 84.603 0 0 0 14.644-3.952 11.674 11.674 0 0 1 3.543-0.901c0.737 0 1.27 0.204 1.577 0.655a3.645 3.645 0 0 1 0.47 2.068 35.738 35.738 0 0 1-1.064 7.762 23.941 23.941 0 0 1-1.311 3.81 8.13 8.13 0 0 1-1.823 2.744 11.878 11.878 0 0 1-4.096 2.253c-1.966 0.758-4.362 1.433-7.147 2.068a92.058 92.058 0 0 1-19.989 2.171c-5.939 0-11.14-0.614-15.565-1.884a28.672 28.672 0 0 1-11.1-5.734 23.695 23.695 0 0 1-6.697-9.83 40.448 40.448 0 0 1-2.253-14.173c0-4.198 0.41-8.704 1.188-13.517 0.758-4.792 2.028-9.523 3.748-14.192 1.761-4.71 3.994-9.216 6.697-13.415a47.043 47.043 0 0 1 23.347-19.005c5.059-1.946 10.855-2.908 17.367-2.908 5.653 0 10.486 0.675 14.541 2.007 4.076 1.351 7.393 3.154 10.015 5.365a21.463 21.463 0 0 1 7.7 16.425z m-22.959 1.782a7.885 7.885 0 0 0-2.928-6.246c-1.966-1.66-4.793-2.499-8.52-2.499a19.66 19.66 0 0 0-14.766 6.267c-1.843 1.925-3.461 4.178-4.792 6.758a43.747 43.747 0 0 0-3.195 8.336h7.782c4.977 0 9.134-0.328 12.472-0.983 3.339-0.656 6.042-1.557 8.09-2.663 2.048-1.147 3.523-2.478 4.465-4.014a9.318 9.318 0 0 0 1.392-4.956z" fill="#2788EE" p-id="2790"></path></svg>