<?xml version="1.0" standalone="no"?><!DOCTYPE svg PUBLIC "-//W3C//DTD SVG 1.1//EN" "http://www.w3.org/Graphics/SVG/1.1/DTD/svg11.dtd"><svg t="1720802500055" class="icon" viewBox="0 0 2265 1024" version="1.1" xmlns="http://www.w3.org/2000/svg" p-id="2634" xmlns:xlink="http://www.w3.org/1999/xlink" width="442.3828125" height="200"><path d="M1452.559515 725.178182l14.615273 58.33697s-18.276848 14.553212-54.830546 29.137454c0-29.168485 29.230545-163.995152 29.230546-163.995151h124.338424l73.138424-484.693334h-120.676848L1536.682667 0h-91.446303l-25.6 153.041455h-131.630546l-73.138424 499.277575h128l-18.307879 182.178909s-76.76897 21.876364-138.922667 21.876364l-18.307878 94.735515s263.292121-32.79903 314.492121-80.151273c3.661576 18.214788 3.661576 29.168485 3.661576 29.168485h80.430545l-32.892121-174.948848H1452.528485z m36.553697-477.370182l58.523152 3.630545-43.876849 313.406061h-58.523151L1489.144242 247.808z m-193.784242 317.036606l58.492121-317.036606h58.523151l-51.2 317.036606h-65.815272z m830.060606-156.70303l29.230545-174.917818h87.753697l7.323152-80.182303h-84.092122l7.292122-127.534546h-87.753697l-18.276849 127.534546H1979.112727l7.323152-127.534546h-87.784727l-14.615273 120.273455h-80.430546l14.584243-123.904H1726.836364l-14.615273 123.904h-62.184727V225.900606h58.523151l-51.2 324.328727h208.430546l-7.323152 72.890182h-248.645818l-18.307879 80.151273h241.353697s-120.645818 167.656727-263.261091 215.04v102.027636s215.722667-127.534545 248.645818-185.871515c-10.984727 112.950303-14.615273 171.287273-14.615272 185.871515V1024h87.753697l21.938424-225.931636S2063.204848 987.570424 2158.281697 1024l3.661576-105.689212s-182.830545-153.041455-201.107394-215.00897h244.984242l14.615273-80.151273H1946.220606l7.323152-69.228606h241.322666l18.307879-83.843878H1767.020606l29.261576-244.146425 87.753697 3.661576-25.6 178.548364h266.922666z m-149.938424-189.502061h95.076848l-14.615273 116.611879h-98.738424l18.276849-116.611879zM724.898909 21.876364h-76.8C359.206788 320.698182 103.268848 368.019394 103.268848 368.019394v102.027636a2688.465455 2688.465455 0 0 0 193.815273-76.520727l-18.307879 72.890182h288.892122l-21.938425 131.196121H194.684121l-10.953697 83.781818h343.722667l-21.938424 247.839031h-98.738425l-47.538424-171.287273H253.207273l51.2 171.287273H33.82303L15.515152 1009.415758h987.291151l21.938424-80.151273h-263.292121l113.353697-167.656727h-102.4l-138.922667 174.917818h-47.538424l32.892121-258.730667h340.092122l14.615272-94.735515H637.145212l18.276849-142.118788h296.184242v-61.936485c95.076848 58.305939 157.230545 72.859152 157.230545 72.859152v-116.611879C808.99103 218.639515 724.898909 21.845333 724.898909 21.845333zM340.96097 371.712c186.492121-87.474424 274.245818-163.995152 321.784242-229.593212 98.707394 109.319758 190.122667 182.209939 266.922667 229.593212H340.96097z" fill="#2286ED" p-id="2635"></path></svg>