<?xml version="1.0" standalone="no"?><!DOCTYPE svg PUBLIC "-//W3C//DTD SVG 1.1//EN" "http://www.w3.org/Graphics/SVG/1.1/DTD/svg11.dtd"><svg t="1720805971254" class="icon" viewBox="0 0 1024 1024" version="1.1" xmlns="http://www.w3.org/2000/svg" p-id="3889" xmlns:xlink="http://www.w3.org/1999/xlink" width="200" height="200"><path d="M458.3 566.6c-14.6-1.1-30 2.9-44.8 8.8-7.2-18.9-13.6-38.5-19.2-58.3-6.2-22.3-11.2-44.8-14.9-67.2 22.5-6.1 45.3-14.6 60.2-29.5 29.7-29.7 50.5-78 57-132.5 5.7-47.8 0.4-92.8-15.3-130.1-17.1-40.5-45.4-68.4-79.9-78.5l-3-0.9c-2.1-0.6-3.3-1-6.5-1.9-0.8-0.2-1.5-0.4-2.3-0.6-39-8.2-72.6-8.2-102.8 0-31.7 8.6-60.2 25.4-84.8 50l-0.4 0.4c-45 45-74.4 113.6-85.1 198.3-10.3 81.6-2.4 172.4 22.6 262.6 32.1 115.4 87.9 216.3 157.2 284 35.2 34.4 72.5 59 110.8 73.1 24.5 9 48.9 13.5 72.7 13.5 16.7 0 33.2-2.2 49.4-6.6 33.9-9.3 64.2-27.9 90-55.3 2.2-1.7 4.3-3.6 6.3-5.5 0.2-0.2 1.4-1.3 1.5-1.5 50-50 38.7-147.6-26.7-232.1-41.6-53.6-93.3-86.5-142-90.2zM579 840.8l-0.7 0.7c-0.6 0.6-1.3 1.1-2.1 1.7-1.8 1.3-3.5 2.9-5.1 4.5-17.5 19.1-37.6 31.8-59.9 37.9-51.9 14.2-111.4-8.2-167.5-63-60.9-59.5-110.3-149.5-139.2-253.6-22.5-81.5-29.7-163.1-20.5-235.9 8.6-68.3 31.8-124.5 65.3-158.3 0.2-0.2 0.4-0.4 0.7-0.6 16.2-16.1 34.6-27 54.7-32.5 19.3-5.3 42.1-5 69.7 0.7 2.1 0.6 3.2 0.9 4.8 1.4l3.1 0.9c29.9 8.8 55.6 61.8 46.8 135.3-4.6 39-18.7 73.6-37.5 92.4-0.1 0.1-3.6 3.3-16.3 7.8-9.5 3.3-19.9 5.8-27.5 7.7-12 2.9-19.9 4.8-27.4 12.3-8.4 8.4-12.6 19.7-11.9 32.7 0 0.4 0 0.9 0.1 1.4 0 0.9 0.1 1.7 0.2 2.6 4.2 32.8 11 65.9 20 98.6 8.3 30 18.6 59.4 30.4 87.4 0.9 2.2 2.1 4.3 3.4 6.2 10.1 14.4 21.7 22.4 34.6 23.8 10.3 1.1 17.3-2.5 22.9-5.4 22.9-11.8 31.1-12.8 33.1-12.8 22.5 1.8 58.7 19.5 93.2 64.1 36.9 47.3 58.7 115.7 32.6 142zM910.1 431.6c-12.7-69.3-51.6-129.5-109.6-169.6-15.5-10.7-36.6-6.8-47.3 8.7-10.7 15.5-6.8 36.6 8.7 47.3 43 29.7 72 74.4 81.4 125.9 9.4 51.4-1.7 103.5-31.5 146.5-10.7 15.5-6.8 36.6 8.7 47.3 5.9 4.1 12.6 6 19.3 6 10.8 0 21.4-5.1 28-14.7 40-58 55-128.1 42.3-197.4z" fill="#707070" p-id="3890"></path><path d="M627.2 390.2c-15.5-10.7-36.6-6.8-47.3 8.7-10.7 15.5-6.8 36.6 8.7 47.3 9.3 6.4 15.5 16 17.5 27.1 2 11.1-0.4 22.3-6.8 31.6-10.7 15.4-6.8 36.6 8.6 47.3 5.9 4.1 12.6 6 19.3 6 10.8 0 21.4-5.1 28-14.7 16.7-24.2 23-53.5 17.7-82.5-5.3-28.9-21.5-54.1-45.7-70.8zM719 339c-15.5-10.7-36.6-6.8-47.3 8.7-10.7 15.5-6.8 36.6 8.7 47.3 21.9 15.1 36.6 37.9 41.4 64.2 4.8 26.3-0.9 52.8-16 74.7-10.7 15.5-6.8 36.6 8.7 47.3 5.9 4.1 12.6 6 19.3 6 10.8 0 21.4-5.1 28-14.7 25.4-36.8 35-81.4 26.9-125.6-8.1-44.2-32.8-82.5-69.7-107.9z" fill="#707070" p-id="3891"></path></svg>