<?xml version="1.0" standalone="no"?><!DOCTYPE svg PUBLIC "-//W3C//DTD SVG 1.1//EN" "http://www.w3.org/Graphics/SVG/1.1/DTD/svg11.dtd"><svg t="1721202561817" class="icon" viewBox="0 0 1024 1024" version="1.1" xmlns="http://www.w3.org/2000/svg" p-id="5181" xmlns:xlink="http://www.w3.org/1999/xlink" width="200" height="200"><path d="M929.279165 425.473197a51.199898 51.199898 0 0 0-51.199897 51.199898v409.59918a37.375925 37.375925 0 0 1-36.863926 36.863927H139.264745a36.863926 36.863926 0 0 1-36.863926-36.863927V182.785682a36.863926 36.863926 0 0 1 36.863926-36.863926h393.215214a51.199898 51.199898 0 0 0 0-102.399795H139.264745A139.263721 139.263721 0 0 0 0.001024 182.785682v701.950597A139.263721 139.263721 0 0 0 139.264745 1024h701.950597a139.263721 139.263721 0 0 0 139.263721-139.263721v-409.599181a51.199898 51.199898 0 0 0-51.199898-49.663901z" fill="#8a8a8a" p-id="5182"></path><path d="M1020.414983 31.233986a51.199898 51.199898 0 0 0-27.647945-27.647945A54.78389 54.78389 0 0 0 972.799078 0.002048h-264.70347a51.199898 51.199898 0 0 0 0 102.399795h139.77572L474.624075 475.649097a51.199898 51.199898 0 0 0 0 72.191855 51.199898 51.199898 0 0 0 72.191855 0l373.247254-373.247253v141.311717a51.199898 51.199898 0 0 0 102.399795 0V51.201946a54.78389 54.78389 0 0 0-2.047996-19.96796z" fill="#8a8a8a" p-id="5183"></path></svg>