<?xml version="1.0" standalone="no"?><!DOCTYPE svg PUBLIC "-//W3C//DTD SVG 1.1//EN" "http://www.w3.org/Graphics/SVG/1.1/DTD/svg11.dtd"><svg t="1721055664772" class="icon" viewBox="0 0 1024 1024" version="1.1" xmlns="http://www.w3.org/2000/svg" p-id="7090" xmlns:xlink="http://www.w3.org/1999/xlink" width="200" height="200"><path d="M873.6 486.4c-16 0-16 0-15.2-16 0-3.2 1.6-4 4-4h21.6c3.2 0 4.8 0.8 4 4v0.8c0 15.2 0 15.2-14.4 15.2z" fill="#1296db" p-id="7091"></path><path d="M162.4 139.2c16 0 16 0 15.2 16 0 2.4-0.8 4-3.2 3.2h-22.4c-2.4 0-4-0.8-3.2-4v-0.8c-1.6-14.4-1.6-14.4 13.6-14.4zM162.4 192.8c16 0 15.2 0 14.4 15.2 0 3.2-0.8 4-4 4H149.6c-5.6-4-1.6-9.6-2.4-15.2-0.8-2.4 0-4.8 3.2-4.8 4.8 0.8 8 0.8 12 0.8zM873.6 432c-0.8 0-0.8 0 0 0-15.2 0-15.2 0-15.2-14.4 0-4 0.8-5.6 4.8-4.8h20.8c3.2 0 4 0.8 4 4 0.8 15.2 0.8 15.2-14.4 15.2z" fill="#1296db" p-id="7092"></path><path d="M357.6 942.4c0 15.2 0 15.2-15.2 14.4-3.2 0-4.8-0.8-4.8-4.8v-20.8c0-3.2 0.8-4 4-4 16-0.8 16-0.8 16 15.2zM412 942.4c0 15.2 0 15.2-15.2 14.4-3.2 0-4.8-0.8-4.8-4.8v-20.8c0-3.2 0.8-4 4-4 16-0.8 16-0.8 16 15.2z" fill="#1296db" p-id="7093"></path><path d="M1016 735.2v-91.2c0-4-0.8-5.6-4.8-8-52-28.8-104-58.4-156-87.2-3.2-1.6-5.6-1.6-8 0-37.6 20.8-76 41.6-113.6 64-9.6 5.6-16.8 4-24-1.6-1.6-1.6-2.4-3.2-2.4-4.8v-154.4c0-8.8-2.4-14.4-10.4-19.2-44.8-24.8-89.6-50.4-134.4-75.2-2.4-0.8-4.8-1.6-4.8-4.8 0-3.2 3.2-3.2 4.8-4.8 35.2-20 70.4-40.8 105.6-60.8 6.4-4 9.6-8.8 9.6-16V104c0-7.2-3.2-12-9.6-16-48.8-28-97.6-56-145.6-84.8-6.4-4-12.8-4-19.2 0-48.8 28-96.8 56.8-145.6 84.8-6.4 4-8.8 8.8-8.8 16v167.2c0 7.2 3.2 12.8 9.6 16 35.2 20 71.2 40.8 106.4 60.8 5.6 3.2 5.6 5.6 0 8l-136.8 76.8c-6.4 3.2-8.8 8-8.8 15.2v148c0 9.6-2.4 16-11.2 19.2-4.8 2.4-8.8 2.4-13.6 0-36.8-21.6-73.6-42.4-110.4-63.2-6.4-4-12.8-4-19.2 0-48.8 27.2-96.8 54.4-145.6 81.6-7.2 4-10.4 9.6-10.4 17.6v168c0 8 3.2 13.6 10.4 17.6 48 26.4 96 53.6 143.2 80 8 4.8 15.2 4.8 23.2 0l141.6-79.2c8-4.8 12-10.4 12-20v-110.4c0-4 0.8-6.4 4.8-8 4.8-2.4 9.6-4.8 14.4-8 4-2.4 6.4-1.6 10.4 0 44.8 25.6 89.6 50.4 134.4 75.2 7.2 4 12.8 4.8 20 0.8 40.8-23.2 81.6-44.8 121.6-68.8 14.4-8.8 25.6-9.6 38.4 0 3.2 2.4 4.8 4 4.8 8.8v117.6c0 4 1.6 6.4 4.8 8 52 28.8 103.2 57.6 155.2 87.2 4 2.4 6.4 1.6 9.6 0 52-28.8 103.2-57.6 155.2-87.2 3.2-1.6 4.8-4 4.8-8-1.6-29.6-1.6-60-1.6-89.6z m-518.4-12c0 7.2 0 7.2-6.4 3.2-39.2-22.4-79.2-44-118.4-66.4-7.2-4-13.6-4-21.6 0-10.4 6.4-21.6 12-32 17.6-7.2 4-10.4 8.8-10.4 17.6v112c0 4-0.8 6.4-4.8 8.8-41.6 23.2-84 46.4-125.6 70.4-4 2.4-6.4 2.4-10.4 0-41.6-24-84-47.2-126.4-70.4-3.2-1.6-4-4-4-8v-146.4c0-4 1.6-6.4 4.8-8 41.6-23.2 84-46.4 125.6-70.4 4-2.4 6.4-1.6 9.6 0 36.8 21.6 73.6 42.4 110.4 63.2 7.2 4 13.6 4 20.8 0 8.8-5.6 18.4-10.4 28-15.2 6.4-3.2 9.6-8.8 9.6-16v-136-8c20.8 12 40.8 23.2 60.8 34.4l84 48c4 2.4 6.4 4.8 5.6 9.6 0.8 53.6 0.8 107.2 0.8 160z m19.2-194.4c-2.4 1.6-4.8 3.2-8 0.8-48-27.2-95.2-54.4-143.2-81.6-0.8 0-1.6-0.8-2.4-1.6l60-33.6c21.6-12 42.4-24 64-36 7.2-4 10.4-8.8 9.6-16.8v-15.2c0.8-8-3.2-13.6-10.4-17.6-30.4-16.8-60-34.4-89.6-51.2-6.4-4-15.2-6.4-19.2-12s-0.8-14.4-0.8-22.4v-124.8c0-4.8 1.6-7.2 5.6-8.8l124.8-72c4-2.4 7.2-2.4 11.2 0l124.8 72c4 2.4 5.6 4.8 5.6 8.8v142.4c0 4-1.6 6.4-4.8 8.8-35.2 20-69.6 40-104.8 60-7.2 4-11.2 9.6-10.4 18.4v13.6c-0.8 8.8 3.2 14.4 10.4 18.4 39.2 21.6 78.4 44 117.6 65.6 1.6 0.8 3.2 1.6 5.6 3.2-17.6 10.4-35.2 20-52 29.6-32 16.8-63.2 33.6-93.6 52z m469.6 278.4c0 4-1.6 6.4-4.8 8-42.4 23.2-84 47.2-126.4 70.4-3.2 1.6-5.6 1.6-8.8 0-42.4-24-84-47.2-126.4-70.4-4-2.4-4.8-4-4.8-8v-117.6c0-4-0.8-6.4-4.8-8.8-15.2-8-29.6-16-44-24-3.2-1.6-5.6-1.6-9.6 0-40.8 23.2-81.6 45.6-122.4 68.8-2.4 1.6-4.8 2.4-8 4v-7.2-159.2c0-4.8 1.6-7.2 5.6-10.4 45.6-27.2 92.8-52 139.2-78.4 4.8-3.2 5.6-1.6 5.6 3.2v139.2c0 5.6 1.6 9.6 7.2 12.8 11.2 6.4 21.6 12.8 32.8 19.2 3.2 2.4 6.4 2.4 9.6 0 40-22.4 79.2-44.8 119.2-66.4 4-2.4 6.4-2.4 10.4 0 41.6 23.2 83.2 47.2 124.8 70.4 3.2 1.6 4.8 4 4.8 8 0.8 49.6 0.8 98.4 0.8 146.4zM952 196.8l-74.4-74.4c-3.2-3.2-4.8-3.2-8.8 0l-74.4 74.4c-1.6 1.6-3.2 2.4-3.2 4 1.6 1.6 4 0.8 5.6 0.8h51.2c9.6 0 9.6 0 9.6 10.4v159.2c0 4.8 0.8 7.2 6.4 7.2 5.6-0.8 11.2-0.8 16.8 0 5.6 0.8 6.4-1.6 6.4-7.2v-164c0-4.8 0.8-5.6 5.6-5.6h56c1.6 0 4 0.8 5.6-0.8 0.8-2.4-0.8-3.2-2.4-4z m-89.6-24.8c13.6-14.4 8.8-14.4 22.4 0h-22.4z" fill="#1296db" p-id="7094"></path><path d="M244 423.2h-61.6c-4.8 0-6.4-1.6-5.6-6.4v-100.8-64.8c0-4-0.8-5.6-4.8-5.6-5.6 0-12 0.8-17.6 0-5.6 0-7.2 0.8-7.2 6.4v163.2c0 5.6-1.6 6.4-6.4 6.4h-61.6c1.6 1.6 1.6 2.4 2.4 3.2 25.6 25.6 51.2 51.2 76.8 77.6 3.2 3.2 4.8 1.6 7.2-0.8l75.2-75.2c1.6 0 4-0.8 3.2-3.2z m-80 40c-0.8 0.8-1.6 0.8-3.2 0-3.2-3.2-7.2-6.4-10.4-8.8l1.6-1.6h21.6c-2.4 4-6.4 7.2-9.6 10.4zM702.4 938.4c-23.2-22.4-45.6-45.6-68.8-68.8l-11.2-11.2v63.2c0 4.8-0.8 6.4-5.6 6.4h-165.6c-4 0-5.6 0.8-4.8 4.8 0 5.6 0.8 11.2 0 16.8-0.8 5.6 1.6 7.2 7.2 7.2h163.2c4.8 0 6.4 1.6 6.4 6.4v56c0 1.6-0.8 4 0.8 4.8l2.4-2.4 76.8-76.8c3.2-2.4 2.4-4-0.8-6.4z m-49.6 14.4v-22.4c0.8 0.8 1.6 0.8 1.6 1.6 11.2 10.4 11.2 10.4-1.6 20.8zM288 676c0-3.2-0.8-4.8-4-6.4-35.2-20-71.2-40.8-106.4-60.8-3.2-1.6-4.8-1.6-8 0-35.2 20.8-70.4 40.8-105.6 60.8-3.2 1.6-4.8 4-4 8v121.6c0 4 0.8 5.6 4 8 35.2 20 70.4 40 104.8 60.8 3.2 1.6 4.8 2.4 8 0 35.2-20.8 70.4-40.8 106.4-61.6 3.2-1.6 4-3.2 4-6.4 0.8-42.4 0.8-83.2 0.8-124z m-29.6 104.8c0 4-1.6 5.6-4.8 8-24.8 14.4-50.4 28.8-75.2 43.2-3.2 1.6-5.6 1.6-8.8 0-25.6-14.4-50.4-29.6-76-44-3.2-1.6-4-4-4-7.2v-44-43.2c0-4 0.8-6.4 4.8-8 25.6-14.4 50.4-28.8 75.2-43.2 3.2-1.6 5.6-1.6 8.8 0 24.8 14.4 50.4 28.8 75.2 43.2 3.2 1.6 4.8 4 4.8 7.2v88zM969.6 676c0-3.2-0.8-5.6-4-7.2-35.2-20-71.2-40.8-106.4-61.6-3.2-1.6-4.8-1.6-8 0-35.2 20.8-70.4 40.8-105.6 60.8-3.2 1.6-4.8 4-4 8v121.6c0 3.2 0.8 5.6 4 7.2 35.2 20 71.2 40.8 106.4 61.6 3.2 1.6 4.8 1.6 8 0 35.2-20.8 70.4-40.8 105.6-60.8 3.2-1.6 4.8-4 4.8-8-0.8-40-0.8-80.8-0.8-121.6z m-29.6 60.8v43.2c0 4-0.8 5.6-4.8 8-25.6 14.4-50.4 28.8-76 44-3.2 1.6-5.6 1.6-8 0-25.6-14.4-50.4-29.6-76-44-3.2-1.6-4-4-4-8v-87.2c0-4 0.8-5.6 4-8 25.6-14.4 50.4-28.8 76-44 3.2-1.6 4.8-1.6 8 0 25.6 14.4 50.4 29.6 76 44 3.2 1.6 4.8 4 4.8 8v44zM626.4 186.4v-60.8c0-4-0.8-6.4-4.8-8-35.2-20-70.4-40-104.8-60.8-3.2-1.6-4.8-2.4-8 0-35.2 20.8-70.4 40.8-105.6 60.8-3.2 1.6-4 4-4 8v120.8c0 4 1.6 6.4 4.8 8.8 34.4 20 69.6 40 104 60 4 2.4 6.4 2.4 9.6 0 34.4-20 69.6-40 104-60 4-2.4 4.8-4 4.8-8.8-0.8-20.8 0-40 0-60z m-34.4 50.4c-25.6 14.4-50.4 28.8-76 44-3.2 1.6-4.8 1.6-8 0-25.6-15.2-51.2-29.6-76.8-44-3.2-1.6-4-3.2-4-7.2v-88c0-3.2 0.8-4.8 4-6.4 25.6-14.4 51.2-29.6 76-44 3.2-1.6 5.6-1.6 8 0 25.6 14.4 50.4 29.6 76 44 3.2 1.6 4 4 4 7.2v87.2c1.6 3.2 0 5.6-3.2 7.2z" fill="#1296db" p-id="7095"></path></svg>